#N canvas -13 -13 2736 1660 12;
#X obj 648 63 adc~;
#X obj 865 728 dac~;
#X obj 751 646 +~;
#X floatatom 513 460 5 0 0 0 - - -;
#X msg 184 577 \; pd dsp \$1 \;;
#X obj 184 512 tgl 50 0 empty empty empty 17 7 0 10 -203904 -1 -1 0
1;
#X obj 808 665 +~;
#X floatatom 553 460 5 0 0 0 - - -;
#X obj 865 706 /~ 4;
#X obj 865 684 +~;
#X floatatom 594 460 5 0 0 0 - - -;
#X obj 513 435 -;
#X obj 553 435 -;
#X obj 594 436 -;
#X obj 458 236 t b f;
#X obj 412 213 moses 0;
#X obj 694 628 +~;
#X floatatom 472 460 5 0 0 0 - - -;
#X obj 472 435 -;
#X obj 112 198 mrpeach/unpackOSC;
#X obj 112 222 route /chords;
#X obj 112 247 unpack f f f f;
#X floatatom 285 359 5 0 0 0 - - -;
#X floatatom 327 359 5 0 0 0 - - -;
#X floatatom 369 359 5 0 0 0 - - -;
#X floatatom 410 359 5 0 0 0 - - -;
#X obj 335 71 vsl 20 128 3 7 0 0 empty empty empty 0 -9 0 10 -232576
-1 -1 12700 1;
#X obj 217 311 + 0;
#X obj 248 311 + 0;
#X obj 278 311 + 0;
#X obj 308 311 + 0;
#X obj 335 229 * 12;
#X obj 335 252 t b f;
#X obj 112 171 mrpeach/udpreceive 3000;
#X obj 412 190 sigmund~ -hop 4096 pitch;
#X obj 1040 197 vsl 20 128 0 1 0 0 empty empty empty 0 -9 0 10 -228856
-1 -1 20320 1;
#X obj 769 606 *~ 1;
#X obj 1090 197 vsl 20 128 0 1 0 0 empty empty empty 0 -9 0 10 -204800
-1 -1 20320 1;
#X obj 1140 197 vsl 20 128 0 1 0 0 empty empty empty 0 -9 0 10 -204786
-1 -1 20320 1;
#X obj 1190 197 vsl 20 128 0 1 0 0 empty empty empty 0 -9 0 10 -261234
-1 -1 20320 1;
#X obj 1240 197 vsl 20 128 0 1 0 0 empty empty empty 0 -9 0 10 -262130
-1 -1 20320 1;
#X obj 1140 465 s s3;
#X obj 712 606 *~ 1;
#X obj 826 606 *~ 1;
#X obj 794 583 r s3;
#X obj 883 606 *~ 1;
#X obj 648 609 *~ 1;
#X obj 1056 22 loadbang;
#X msg 1140 105 0.8;
#X obj 1040 465 s dry;
#X obj 673 583 r dry;
#X obj 1090 465 s s1;
#X obj 1190 465 s s5;
#X obj 1240 465 s s7;
#X obj 737 583 r s1;
#X obj 851 583 r s5;
#X obj 908 583 r s7;
#X obj 335 206 i;
#X text 284 112 octave;
#X obj 898 128 env~;
#X obj 898 174 change;
#X obj 898 197 sel 0;
#X obj 939 128 hsl 128 20 0 80 0 0 empty empty empty -2 -8 0 10 -262144
-1 -1 12700 1;
#X text 1010 106 treshold;
#X text 1103 174 voice mixer;
#X text 814 152 footswitch;
#X text 939 559 pitch shifting;
#X obj 335 23 loadbang;
#X msg 335 46 5;
#X text 476 168 pitch detection;
#X text 351 460 pitch correction;
#X text 171 359 desired pitches;
#X text 119 148 receiving from server;
#X msg 936 105 40;
#X obj 898 151 > 50;
#X floatatom 936 152 5 0 0 0 - - -;
#X obj 1090 442 line;
#X msg 898 380 0 50;
#X obj 1090 351 pack f 50;
#X msg 817 174 1;
#X obj 930 328 bng 15 250 50 0 empty empty empty 17 7 0 10 -262144
-1 -1;
#X msg 856 174 0;
#X obj 1140 374 pack f 50;
#X obj 1190 397 pack f 50;
#X obj 1240 420 pack f 50;
#X obj 1140 442 line;
#X obj 1190 442 line;
#X obj 1240 442 line;
#X obj 849 213 tgl 15 0 empty empty empty 17 7 0 10 -262144 -1 -1 1
1;
#X text 807 211 state;
#X msg 40 171 0 4 7 11;
#X obj 712 561 pshift;
#X obj 769 561 pshift;
#X obj 826 561 pshift;
#X obj 883 561 pshift;
#X connect 0 0 34 0;
#X connect 0 0 46 0;
#X connect 0 0 91 1;
#X connect 0 0 92 1;
#X connect 0 0 93 1;
#X connect 0 0 94 1;
#X connect 0 1 59 0;
#X connect 2 0 6 0;
#X connect 3 0 92 0;
#X connect 5 0 4 0;
#X connect 6 0 9 0;
#X connect 7 0 93 0;
#X connect 8 0 1 0;
#X connect 8 0 1 1;
#X connect 9 0 8 0;
#X connect 10 0 94 0;
#X connect 11 0 3 0;
#X connect 12 0 7 0;
#X connect 13 0 10 0;
#X connect 14 0 22 0;
#X connect 14 0 23 0;
#X connect 14 0 24 0;
#X connect 14 0 25 0;
#X connect 14 1 11 1;
#X connect 14 1 12 1;
#X connect 14 1 13 1;
#X connect 14 1 18 1;
#X connect 15 1 14 0;
#X connect 16 0 2 0;
#X connect 17 0 91 0;
#X connect 18 0 17 0;
#X connect 19 0 20 0;
#X connect 20 0 21 0;
#X connect 21 0 27 0;
#X connect 21 1 28 0;
#X connect 21 2 29 0;
#X connect 21 3 30 0;
#X connect 22 0 18 0;
#X connect 23 0 11 0;
#X connect 24 0 12 0;
#X connect 25 0 13 0;
#X connect 26 0 57 0;
#X connect 27 0 22 0;
#X connect 28 0 23 0;
#X connect 29 0 24 0;
#X connect 30 0 25 0;
#X connect 31 0 32 0;
#X connect 32 0 27 0;
#X connect 32 0 28 0;
#X connect 32 0 29 0;
#X connect 32 0 30 0;
#X connect 32 1 30 1;
#X connect 32 1 29 1;
#X connect 32 1 28 1;
#X connect 32 1 27 1;
#X connect 33 0 19 0;
#X connect 34 0 15 0;
#X connect 35 0 49 0;
#X connect 36 0 2 1;
#X connect 37 0 78 0;
#X connect 38 0 82 0;
#X connect 39 0 83 0;
#X connect 40 0 84 0;
#X connect 42 0 16 1;
#X connect 43 0 6 1;
#X connect 44 0 36 1;
#X connect 45 0 9 1;
#X connect 46 0 16 0;
#X connect 47 0 48 0;
#X connect 47 0 73 0;
#X connect 48 0 35 0;
#X connect 48 0 37 0;
#X connect 48 0 38 0;
#X connect 48 0 39 0;
#X connect 48 0 40 0;
#X connect 50 0 46 1;
#X connect 54 0 42 1;
#X connect 55 0 43 1;
#X connect 56 0 45 1;
#X connect 57 0 31 0;
#X connect 59 0 74 0;
#X connect 60 0 61 0;
#X connect 60 0 88 0;
#X connect 61 0 77 0;
#X connect 61 1 80 0;
#X connect 62 0 74 1;
#X connect 62 0 75 0;
#X connect 67 0 68 0;
#X connect 67 0 90 0;
#X connect 68 0 26 0;
#X connect 73 0 62 0;
#X connect 74 0 60 0;
#X connect 76 0 51 0;
#X connect 77 0 76 0;
#X connect 77 0 85 0;
#X connect 77 0 86 0;
#X connect 77 0 87 0;
#X connect 78 0 76 0;
#X connect 79 0 61 0;
#X connect 79 0 88 0;
#X connect 80 0 78 0;
#X connect 80 0 82 0;
#X connect 80 0 83 0;
#X connect 80 0 84 0;
#X connect 81 0 61 0;
#X connect 81 0 88 0;
#X connect 82 0 85 0;
#X connect 83 0 86 0;
#X connect 84 0 87 0;
#X connect 85 0 41 0;
#X connect 86 0 52 0;
#X connect 87 0 53 0;
#X connect 90 0 21 0;
#X connect 91 0 42 0;
#X connect 92 0 36 0;
#X connect 93 0 43 0;
#X connect 94 0 45 0;
