#N canvas 1357 0 1364 1645 12;
#N canvas -13 -13 2736 1660 third 0;
#X floatatom 38 182 0 0 0 0 - - -;
#X obj 164 716 *~;
#X obj 410 590 line~;
#X floatatom 474 224 0 0 0 0 - - -;
#X text 136 18 PITCH SHIFTER;
#X obj 410 538 pack 0 200;
#X obj 474 172 r window;
#X obj 38 286 exp;
#X floatatom 38 338 6 0 0 0 - - -;
#X obj 38 518 /;
#X obj 292 378 * 0.001;
#X obj 628 730 line~;
#X obj 628 680 pack 0 200;
#X floatatom 628 578 0 0 0 0 - - -;
#X obj 628 526 r delay;
#X obj 164 768 +~;
#X obj 38 820 cos~;
#X obj 38 874 *~;
#X obj 38 932 +~;
#X obj 212 634 wrap~;
#X obj 502 720 *~;
#X obj 502 786 +~;
#X obj 376 840 cos~;
#X obj 376 894 *~;
#X obj 984 60 loadbang;
#X obj 292 432 t b f;
#X floatatom 38 570 6 0 0 0 - - -;
#X obj 212 580 +~ 0.5;
#X obj 38 716 -~ 0.5;
#X obj 38 768 *~ 0.5;
#X obj 376 718 -~ 0.5;
#X obj 376 784 *~ 0.5;
#X obj 38 392 - 1;
#X obj 38 234 * 0.05776;
#X obj 38 444 * -1;
#X text 106 172 <-- transposition;
#X text 192 198 (halftones);
#X text 164 326 speed;
#X text 162 354 change;
#X text 562 222 <--window (msec);
#X text 108 504 tape head;
#X text 850 306 This is a classic rotating-tape-head style pitch shifter
using the vd~ variable delay object. Ther are two moving tape heads
\, each of which is loudest at the middle of its trajectory \, and
enveloped out at the moment it has to jump back (or forward) to start
another scratch. Most of the brain work is in computing how fast the
tape heads have to move to get the desired transposition.;
#X text 850 544 The "window size" is the total trajectory of the read
points in the delay line \, in milliseconds. The delay times are controlled
by a phasor~ object. The second delay time \, 180 degrees out of phase
from the first one \, is computed using the "wrap" object.;
#X text 846 724 The "window size" is the total trajectory of the read
points in the delay line \, in milliseconds. The delay times are controlled
by a phasor~ object. The second delay time \, 180 degrees out of phase
from the first one \, is computed using the "wrap" object.;
#X text 844 908 The cos~ objects compute the fadein and fadeout of
the two delay line outputs. They each traverse the positive half of
the cosine waveform (phase -0.25 to +0.25) over the time the phase
goes from one end to the other.;
#X obj 38 632 phasor~;
#X text 1378 1068 updated for Pd version 0.37-1;
#X obj 628 632 max 1.5;
#X text 634 444 delay;
#X text 628 480 (msec);
#X obj 474 278 max 1;
#X text 110 530 rotation freq;
#X obj 525 32 inlet~;
#X obj 38 978 outlet~;
#X msg 984 112 \; window 100 \; delay 0;
#X obj 38 122 inlet;
#X obj 528 84 delwrite~ third 5000;
#X obj 164 820 vd~ third;
#X obj 502 844 vd~ third;
#X connect 0 0 33 0;
#X connect 1 0 15 0;
#X connect 2 0 1 1;
#X connect 2 0 20 1;
#X connect 3 0 50 0;
#X connect 5 0 2 0;
#X connect 6 0 3 0;
#X connect 7 0 8 0;
#X connect 8 0 32 0;
#X connect 9 0 26 0;
#X connect 10 0 25 0;
#X connect 11 0 15 1;
#X connect 11 0 21 1;
#X connect 12 0 11 0;
#X connect 13 0 47 0;
#X connect 14 0 13 0;
#X connect 15 0 57 0;
#X connect 16 0 17 0;
#X connect 17 0 18 0;
#X connect 18 0 53 0;
#X connect 19 0 20 0;
#X connect 19 0 30 0;
#X connect 20 0 21 0;
#X connect 21 0 58 0;
#X connect 22 0 23 0;
#X connect 23 0 18 1;
#X connect 24 0 54 0;
#X connect 25 0 9 0;
#X connect 25 1 9 1;
#X connect 26 0 45 0;
#X connect 27 0 19 0;
#X connect 28 0 29 0;
#X connect 29 0 16 0;
#X connect 30 0 31 0;
#X connect 31 0 22 0;
#X connect 32 0 34 0;
#X connect 33 0 7 0;
#X connect 34 0 9 0;
#X connect 45 0 1 0;
#X connect 45 0 28 0;
#X connect 45 0 27 0;
#X connect 47 0 12 0;
#X connect 50 0 10 0;
#X connect 50 0 5 0;
#X connect 52 0 56 0;
#X connect 55 0 0 0;
#X connect 57 0 17 1;
#X connect 58 0 23 1;
#X restore 769 561 pd third;
#X obj 648 63 adc~;
#X obj 879 728 dac~;
#X obj 751 646 +~;
#X floatatom 513 460 5 0 0 0 - - -;
#X msg 184 577 \; pd dsp \$1 \;;
#X obj 184 512 tgl 50 0 empty empty empty 17 7 0 10 -203904 -1 -1 0
1;
#N canvas -13 -13 2736 1660 fifth 0;
#X floatatom 38 182 0 0 0 0 - - -;
#X obj 164 716 *~;
#X obj 410 590 line~;
#X floatatom 474 224 0 0 0 0 - - -;
#X text 136 18 PITCH SHIFTER;
#X obj 410 538 pack 0 200;
#X obj 474 172 r window;
#X obj 38 286 exp;
#X floatatom 38 338 6 0 0 0 - - -;
#X obj 38 518 /;
#X obj 292 378 * 0.001;
#X obj 628 730 line~;
#X obj 628 680 pack 0 200;
#X floatatom 628 578 0 0 0 0 - - -;
#X obj 628 526 r delay;
#X obj 164 768 +~;
#X obj 38 820 cos~;
#X obj 38 874 *~;
#X obj 38 932 +~;
#X obj 212 634 wrap~;
#X obj 502 720 *~;
#X obj 502 786 +~;
#X obj 376 840 cos~;
#X obj 376 894 *~;
#X obj 984 60 loadbang;
#X obj 292 432 t b f;
#X floatatom 38 570 6 0 0 0 - - -;
#X obj 212 580 +~ 0.5;
#X obj 38 716 -~ 0.5;
#X obj 38 768 *~ 0.5;
#X obj 376 718 -~ 0.5;
#X obj 376 784 *~ 0.5;
#X obj 38 392 - 1;
#X obj 38 234 * 0.05776;
#X obj 38 444 * -1;
#X text 106 172 <-- transposition;
#X text 192 198 (halftones);
#X text 164 326 speed;
#X text 162 354 change;
#X text 562 222 <--window (msec);
#X text 108 504 tape head;
#X text 850 306 This is a classic rotating-tape-head style pitch shifter
using the vd~ variable delay object. Ther are two moving tape heads
\, each of which is loudest at the middle of its trajectory \, and
enveloped out at the moment it has to jump back (or forward) to start
another scratch. Most of the brain work is in computing how fast the
tape heads have to move to get the desired transposition.;
#X text 850 544 The "window size" is the total trajectory of the read
points in the delay line \, in milliseconds. The delay times are controlled
by a phasor~ object. The second delay time \, 180 degrees out of phase
from the first one \, is computed using the "wrap" object.;
#X text 846 724 The "window size" is the total trajectory of the read
points in the delay line \, in milliseconds. The delay times are controlled
by a phasor~ object. The second delay time \, 180 degrees out of phase
from the first one \, is computed using the "wrap" object.;
#X text 844 908 The cos~ objects compute the fadein and fadeout of
the two delay line outputs. They each traverse the positive half of
the cosine waveform (phase -0.25 to +0.25) over the time the phase
goes from one end to the other.;
#X obj 38 632 phasor~;
#X text 1378 1068 updated for Pd version 0.37-1;
#X obj 628 632 max 1.5;
#X text 634 444 delay;
#X text 628 480 (msec);
#X obj 474 278 max 1;
#X text 110 530 rotation freq;
#X obj 525 32 inlet~;
#X obj 38 978 outlet~;
#X msg 984 112 \; window 100 \; delay 0;
#X obj 38 122 inlet;
#X obj 528 84 delwrite~ fifth 5000;
#X obj 164 820 vd~ fifth;
#X obj 502 844 vd~ fifth;
#X connect 0 0 33 0;
#X connect 1 0 15 0;
#X connect 2 0 1 1;
#X connect 2 0 20 1;
#X connect 3 0 50 0;
#X connect 5 0 2 0;
#X connect 6 0 3 0;
#X connect 7 0 8 0;
#X connect 8 0 32 0;
#X connect 9 0 26 0;
#X connect 10 0 25 0;
#X connect 11 0 15 1;
#X connect 11 0 21 1;
#X connect 12 0 11 0;
#X connect 13 0 47 0;
#X connect 14 0 13 0;
#X connect 15 0 57 0;
#X connect 16 0 17 0;
#X connect 17 0 18 0;
#X connect 18 0 53 0;
#X connect 19 0 20 0;
#X connect 19 0 30 0;
#X connect 20 0 21 0;
#X connect 21 0 58 0;
#X connect 22 0 23 0;
#X connect 23 0 18 1;
#X connect 24 0 54 0;
#X connect 25 0 9 0;
#X connect 25 1 9 1;
#X connect 26 0 45 0;
#X connect 27 0 19 0;
#X connect 28 0 29 0;
#X connect 29 0 16 0;
#X connect 30 0 31 0;
#X connect 31 0 22 0;
#X connect 32 0 34 0;
#X connect 33 0 7 0;
#X connect 34 0 9 0;
#X connect 45 0 1 0;
#X connect 45 0 28 0;
#X connect 45 0 27 0;
#X connect 47 0 12 0;
#X connect 50 0 10 0;
#X connect 50 0 5 0;
#X connect 52 0 56 0;
#X connect 55 0 0 0;
#X connect 57 0 17 1;
#X connect 58 0 23 1;
#X restore 833 561 pd fifth;
#X obj 815 665 +~;
#X floatatom 553 460 5 0 0 0 - - -;
#N canvas -13 -13 2736 1660 seventh 0;
#X floatatom 38 182 0 0 0 0 - - -;
#X obj 164 716 *~;
#X obj 410 590 line~;
#X floatatom 474 224 0 0 0 0 - - -;
#X text 136 18 PITCH SHIFTER;
#X obj 410 538 pack 0 200;
#X obj 474 172 r window;
#X obj 38 286 exp;
#X floatatom 38 338 6 0 0 0 - - -;
#X obj 38 518 /;
#X obj 292 378 * 0.001;
#X obj 628 730 line~;
#X obj 628 680 pack 0 200;
#X floatatom 628 578 0 0 0 0 - - -;
#X obj 628 526 r delay;
#X obj 164 768 +~;
#X obj 38 820 cos~;
#X obj 38 874 *~;
#X obj 38 932 +~;
#X obj 212 634 wrap~;
#X obj 502 720 *~;
#X obj 502 786 +~;
#X obj 376 840 cos~;
#X obj 376 894 *~;
#X obj 984 60 loadbang;
#X obj 292 432 t b f;
#X floatatom 38 570 6 0 0 0 - - -;
#X obj 212 580 +~ 0.5;
#X obj 38 716 -~ 0.5;
#X obj 38 768 *~ 0.5;
#X obj 376 718 -~ 0.5;
#X obj 376 784 *~ 0.5;
#X obj 38 392 - 1;
#X obj 38 234 * 0.05776;
#X obj 38 444 * -1;
#X text 106 172 <-- transposition;
#X text 192 198 (halftones);
#X text 164 326 speed;
#X text 162 354 change;
#X text 562 222 <--window (msec);
#X text 108 504 tape head;
#X text 850 306 This is a classic rotating-tape-head style pitch shifter
using the vd~ variable delay object. Ther are two moving tape heads
\, each of which is loudest at the middle of its trajectory \, and
enveloped out at the moment it has to jump back (or forward) to start
another scratch. Most of the brain work is in computing how fast the
tape heads have to move to get the desired transposition.;
#X text 850 544 The "window size" is the total trajectory of the read
points in the delay line \, in milliseconds. The delay times are controlled
by a phasor~ object. The second delay time \, 180 degrees out of phase
from the first one \, is computed using the "wrap" object.;
#X text 846 724 The "window size" is the total trajectory of the read
points in the delay line \, in milliseconds. The delay times are controlled
by a phasor~ object. The second delay time \, 180 degrees out of phase
from the first one \, is computed using the "wrap" object.;
#X text 844 908 The cos~ objects compute the fadein and fadeout of
the two delay line outputs. They each traverse the positive half of
the cosine waveform (phase -0.25 to +0.25) over the time the phase
goes from one end to the other.;
#X obj 38 632 phasor~;
#X text 1378 1068 updated for Pd version 0.37-1;
#X obj 628 632 max 1.5;
#X text 634 444 delay;
#X text 628 480 (msec);
#X obj 474 278 max 1;
#X text 110 530 rotation freq;
#X obj 525 32 inlet~;
#X obj 38 978 outlet~;
#X msg 984 112 \; window 100 \; delay 0;
#X obj 38 122 inlet;
#X obj 528 84 delwrite~ seventh 5000;
#X obj 502 844 vd~ seventh;
#X obj 164 820 vd~ seventh;
#X connect 0 0 33 0;
#X connect 1 0 15 0;
#X connect 2 0 1 1;
#X connect 2 0 20 1;
#X connect 3 0 50 0;
#X connect 5 0 2 0;
#X connect 6 0 3 0;
#X connect 7 0 8 0;
#X connect 8 0 32 0;
#X connect 9 0 26 0;
#X connect 10 0 25 0;
#X connect 11 0 15 1;
#X connect 11 0 21 1;
#X connect 12 0 11 0;
#X connect 13 0 47 0;
#X connect 14 0 13 0;
#X connect 15 0 58 0;
#X connect 16 0 17 0;
#X connect 17 0 18 0;
#X connect 18 0 53 0;
#X connect 19 0 20 0;
#X connect 19 0 30 0;
#X connect 20 0 21 0;
#X connect 21 0 57 0;
#X connect 22 0 23 0;
#X connect 23 0 18 1;
#X connect 24 0 54 0;
#X connect 25 0 9 0;
#X connect 25 1 9 1;
#X connect 26 0 45 0;
#X connect 27 0 19 0;
#X connect 28 0 29 0;
#X connect 29 0 16 0;
#X connect 30 0 31 0;
#X connect 31 0 22 0;
#X connect 32 0 34 0;
#X connect 33 0 7 0;
#X connect 34 0 9 0;
#X connect 45 0 1 0;
#X connect 45 0 28 0;
#X connect 45 0 27 0;
#X connect 47 0 12 0;
#X connect 50 0 10 0;
#X connect 50 0 5 0;
#X connect 52 0 56 0;
#X connect 55 0 0 0;
#X connect 57 0 23 1;
#X connect 58 0 17 1;
#X restore 897 561 pd seventh;
#X obj 879 706 /~ 4;
#X obj 879 684 +~;
#X floatatom 594 460 5 0 0 0 - - -;
#X obj 513 435 -;
#X obj 553 435 -;
#X obj 594 436 -;
#X obj 458 236 t b f;
#X obj 412 213 moses 0;
#N canvas 0 23 1440 851 root 0;
#X floatatom 38 182 0 0 0 0 - - -;
#X obj 164 716 *~;
#X obj 410 590 line~;
#X floatatom 474 224 0 0 0 0 - - -;
#X text 136 18 PITCH SHIFTER;
#X obj 410 538 pack 0 200;
#X obj 474 172 r window;
#X obj 38 286 exp;
#X floatatom 38 338 6 0 0 0 - - -;
#X obj 38 518 /;
#X obj 292 378 * 0.001;
#X obj 628 730 line~;
#X obj 628 680 pack 0 200;
#X floatatom 628 578 0 0 0 0 - - -;
#X obj 628 526 r delay;
#X obj 164 768 +~;
#X obj 38 820 cos~;
#X obj 38 874 *~;
#X obj 38 932 +~;
#X obj 212 634 wrap~;
#X obj 502 720 *~;
#X obj 502 786 +~;
#X obj 376 840 cos~;
#X obj 376 894 *~;
#X obj 984 60 loadbang;
#X obj 292 432 t b f;
#X floatatom 38 570 6 0 0 0 - - -;
#X obj 212 580 +~ 0.5;
#X obj 38 716 -~ 0.5;
#X obj 38 768 *~ 0.5;
#X obj 376 718 -~ 0.5;
#X obj 376 784 *~ 0.5;
#X obj 38 392 - 1;
#X obj 38 234 * 0.05776;
#X obj 38 444 * -1;
#X text 106 172 <-- transposition;
#X text 192 198 (halftones);
#X text 164 326 speed;
#X text 162 354 change;
#X text 562 222 <--window (msec);
#X text 108 504 tape head;
#X text 850 306 This is a classic rotating-tape-head style pitch shifter
using the vd~ variable delay object. Ther are two moving tape heads
\, each of which is loudest at the middle of its trajectory \, and
enveloped out at the moment it has to jump back (or forward) to start
another scratch. Most of the brain work is in computing how fast the
tape heads have to move to get the desired transposition.;
#X text 850 544 The "window size" is the total trajectory of the read
points in the delay line \, in milliseconds. The delay times are controlled
by a phasor~ object. The second delay time \, 180 degrees out of phase
from the first one \, is computed using the "wrap" object.;
#X text 846 724 The "window size" is the total trajectory of the read
points in the delay line \, in milliseconds. The delay times are controlled
by a phasor~ object. The second delay time \, 180 degrees out of phase
from the first one \, is computed using the "wrap" object.;
#X text 844 908 The cos~ objects compute the fadein and fadeout of
the two delay line outputs. They each traverse the positive half of
the cosine waveform (phase -0.25 to +0.25) over the time the phase
goes from one end to the other.;
#X obj 38 632 phasor~;
#X text 1378 1068 updated for Pd version 0.37-1;
#X obj 628 632 max 1.5;
#X text 634 444 delay;
#X text 628 480 (msec);
#X obj 474 278 max 1;
#X text 110 530 rotation freq;
#X obj 525 32 inlet~;
#X obj 38 978 outlet~;
#X msg 984 112 \; window 100 \; delay 0;
#X obj 38 122 inlet;
#X obj 528 84 delwrite~ root 5000;
#X obj 502 844 vd~ root;
#X obj 164 820 vd~ root;
#X connect 0 0 33 0;
#X connect 1 0 15 0;
#X connect 2 0 1 1;
#X connect 2 0 20 1;
#X connect 3 0 50 0;
#X connect 5 0 2 0;
#X connect 6 0 3 0;
#X connect 7 0 8 0;
#X connect 8 0 32 0;
#X connect 9 0 26 0;
#X connect 10 0 25 0;
#X connect 11 0 15 1;
#X connect 11 0 21 1;
#X connect 12 0 11 0;
#X connect 13 0 47 0;
#X connect 14 0 13 0;
#X connect 15 0 58 0;
#X connect 16 0 17 0;
#X connect 17 0 18 0;
#X connect 18 0 53 0;
#X connect 19 0 20 0;
#X connect 19 0 30 0;
#X connect 20 0 21 0;
#X connect 21 0 57 0;
#X connect 22 0 23 0;
#X connect 23 0 18 1;
#X connect 24 0 54 0;
#X connect 25 0 9 0;
#X connect 25 1 9 1;
#X connect 26 0 45 0;
#X connect 27 0 19 0;
#X connect 28 0 29 0;
#X connect 29 0 16 0;
#X connect 30 0 31 0;
#X connect 31 0 22 0;
#X connect 32 0 34 0;
#X connect 33 0 7 0;
#X connect 34 0 9 0;
#X connect 45 0 1 0;
#X connect 45 0 28 0;
#X connect 45 0 27 0;
#X connect 47 0 12 0;
#X connect 50 0 10 0;
#X connect 50 0 5 0;
#X connect 52 0 56 0;
#X connect 55 0 0 0;
#X connect 57 0 23 1;
#X connect 58 0 17 1;
#X restore 712 561 pd root;
#X obj 694 628 +~;
#X floatatom 472 460 5 0 0 0 - - -;
#X obj 472 435 -;
#X obj 112 198 mrpeach/unpackOSC;
#X obj 112 222 route /chords;
#X obj 112 247 unpack f f f f;
#X floatatom 285 359 5 0 0 0 - - -;
#X floatatom 327 359 5 0 0 0 - - -;
#X floatatom 369 359 5 0 0 0 - - -;
#X floatatom 410 359 5 0 0 0 - - -;
#X obj 335 71 vsl 20 128 3 7 0 0 empty empty empty 0 -9 0 10 -232576
-1 -1 12700 1;
#X obj 217 311 + 0;
#X obj 248 311 + 0;
#X obj 278 311 + 0;
#X obj 308 311 + 0;
#X obj 335 229 * 12;
#X obj 335 252 t b f;
#X obj 112 171 mrpeach/udpreceive 3000;
#X obj 412 190 sigmund~ -hop 4096 pitch;
#X obj 1040 197 vsl 20 128 0 1 0 0 empty empty empty 0 -9 0 10 -228856
-1 -1 19700 1;
#X obj 769 606 *~ 1;
#X obj 1090 197 vsl 20 128 0 1 0 0 empty empty empty 0 -9 0 10 -204800
-1 -1 20300 1;
#X obj 1140 197 vsl 20 128 0 1 0 0 empty empty empty 0 -9 0 10 -204786
-1 -1 20000 1;
#X obj 1190 197 vsl 20 128 0 1 0 0 empty empty empty 0 -9 0 10 -261234
-1 -1 20100 1;
#X obj 1240 197 vsl 20 128 0 1 0 0 empty empty empty 0 -9 0 10 -262130
-1 -1 19700 1;
#X obj 1140 465 s s3;
#X obj 712 606 *~ 1;
#X obj 833 606 *~ 1;
#X obj 794 583 r s3;
#X obj 897 606 *~ 1;
#X obj 649 606 *~ 1;
#X obj 1056 22 loadbang;
#X msg 1140 105 0.8;
#X obj 1040 465 s dry;
#X obj 674 583 r dry;
#X obj 1090 465 s s1;
#X obj 1190 465 s s5;
#X obj 1240 465 s s7;
#X obj 737 583 r s1;
#X obj 858 583 r s5;
#X obj 922 583 r s7;
#X obj 335 206 i;
#X text 284 112 octave;
#X obj 898 128 env~;
#X obj 898 174 change;
#X obj 898 197 sel 0;
#X obj 939 128 hsl 128 20 0 80 0 0 empty empty empty -2 -8 0 10 -262144
-1 -1 25500 1;
#X text 1010 106 treshold;
#X text 1103 174 voice mixer;
#X text 814 152 footswitch;
#X text 977 559 pitch shifting;
#X obj 335 23 loadbang;
#X msg 335 46 5;
#X text 476 168 pitch detection;
#X text 351 460 pitch correction;
#X text 171 359 desired pitches;
#X text 119 148 receiving from server;
#X msg 936 105 40;
#X obj 898 151 > 50;
#X floatatom 936 152 5 0 0 0 - - -;
#X obj 1090 442 line;
#X msg 898 380 0 50;
#X obj 409 577 bng 15 250 50 0 empty empty empty 17 7 0 10 -262144
-1 -1;
#X obj 401 704 print;
#X obj 409 597 t b b;
#X floatatom 387 647 5 0 0 0 - - -;
#X obj 401 681 pack f 50;
#X obj 1090 351 pack f 50;
#X msg 817 174 1;
#X obj 930 328 bng 15 250 50 0 empty empty empty 17 7 0 10 -262144
-1 -1;
#X msg 856 174 0;
#X obj 1140 374 pack f 50;
#X obj 1190 397 pack f 50;
#X obj 1240 420 pack f 50;
#X obj 1140 442 line;
#X obj 1190 442 line;
#X obj 1240 442 line;
#X obj 849 213 tgl 15 0 empty empty empty 17 7 0 10 -262144 -1 -1 0
1;
#X text 807 211 state;
#X connect 0 0 40 0;
#X connect 1 0 0 1;
#X connect 1 0 7 1;
#X connect 1 0 10 1;
#X connect 1 0 19 1;
#X connect 1 0 38 0;
#X connect 1 0 50 0;
#X connect 1 1 63 0;
#X connect 3 0 8 0;
#X connect 4 0 0 0;
#X connect 6 0 5 0;
#X connect 7 0 47 0;
#X connect 8 0 12 0;
#X connect 9 0 7 0;
#X connect 10 0 49 0;
#X connect 11 0 2 0;
#X connect 11 0 2 1;
#X connect 12 0 11 0;
#X connect 13 0 10 0;
#X connect 14 0 4 0;
#X connect 15 0 9 0;
#X connect 16 0 13 0;
#X connect 17 0 26 0;
#X connect 17 0 27 0;
#X connect 17 0 28 0;
#X connect 17 0 29 0;
#X connect 17 1 14 1;
#X connect 17 1 15 1;
#X connect 17 1 16 1;
#X connect 17 1 22 1;
#X connect 18 1 17 0;
#X connect 19 0 46 0;
#X connect 20 0 3 0;
#X connect 21 0 19 0;
#X connect 22 0 21 0;
#X connect 23 0 24 0;
#X connect 24 0 25 0;
#X connect 25 0 31 0;
#X connect 25 1 32 0;
#X connect 25 2 33 0;
#X connect 25 3 34 0;
#X connect 26 0 22 0;
#X connect 27 0 14 0;
#X connect 28 0 15 0;
#X connect 29 0 16 0;
#X connect 30 0 61 0;
#X connect 31 0 26 0;
#X connect 32 0 27 0;
#X connect 33 0 28 0;
#X connect 34 0 29 0;
#X connect 35 0 36 0;
#X connect 36 0 31 0;
#X connect 36 0 32 0;
#X connect 36 0 33 0;
#X connect 36 0 34 0;
#X connect 36 1 34 1;
#X connect 36 1 33 1;
#X connect 36 1 32 1;
#X connect 36 1 31 1;
#X connect 37 0 23 0;
#X connect 38 0 18 0;
#X connect 39 0 53 0;
#X connect 40 0 3 1;
#X connect 41 0 87 0;
#X connect 42 0 91 0;
#X connect 43 0 92 0;
#X connect 44 0 93 0;
#X connect 46 0 20 1;
#X connect 47 0 8 1;
#X connect 48 0 40 1;
#X connect 49 0 12 1;
#X connect 50 0 20 0;
#X connect 51 0 52 0;
#X connect 51 0 77 0;
#X connect 52 0 39 0;
#X connect 52 0 41 0;
#X connect 52 0 42 0;
#X connect 52 0 43 0;
#X connect 52 0 44 0;
#X connect 54 0 50 1;
#X connect 58 0 46 1;
#X connect 59 0 47 1;
#X connect 60 0 49 1;
#X connect 61 0 35 0;
#X connect 63 0 78 0;
#X connect 64 0 65 0;
#X connect 64 0 97 0;
#X connect 65 0 81 0;
#X connect 65 1 89 0;
#X connect 66 0 78 1;
#X connect 66 0 79 0;
#X connect 71 0 72 0;
#X connect 72 0 30 0;
#X connect 77 0 66 0;
#X connect 78 0 64 0;
#X connect 80 0 55 0;
#X connect 81 0 80 0;
#X connect 81 0 94 0;
#X connect 81 0 95 0;
#X connect 81 0 96 0;
#X connect 82 0 84 0;
#X connect 84 0 85 0;
#X connect 85 0 86 0;
#X connect 86 0 83 0;
#X connect 87 0 80 0;
#X connect 88 0 65 0;
#X connect 88 0 97 0;
#X connect 89 0 87 0;
#X connect 89 0 91 0;
#X connect 89 0 92 0;
#X connect 89 0 93 0;
#X connect 90 0 65 0;
#X connect 90 0 97 0;
#X connect 91 0 94 0;
#X connect 92 0 95 0;
#X connect 93 0 96 0;
#X connect 94 0 45 0;
#X connect 95 0 56 0;
#X connect 96 0 57 0;
